<svg version="1.1" xmlns="http://www.w3.org/2000/svg" viewBox="0 0 497.0909423828125 383.6363525390625" width="497.0909423828125" height="383.6363525390625">
  <!-- svg-source:excalidraw -->
  
  <defs>
    <style>
      @font-face {
        font-family: "Virgil";
        src: url("https://excalidraw.com/FG_Virgil.woff2");
      }
      @font-face {
        font-family: "Cascadia";
        src: url("https://excalidraw.com/Cascadia.woff2");
      }
    </style>
  </defs>
  <g transform="translate(23.818206787109375 10) rotate(0 68.36366271972656 28.727256774902344)"><path d="M1.4349827375262976 0.05172313190996647 C39.269760548988415 -0.04772903539781426, 76.12232057175424 -1.215467294236468, 135.87123336456716 -0.4205468203872442 M0.8547087060287595 -0.35605128575116396 C38.59288876629759 -0.04506903985035571, 79.70231993282863 -1.4101282666016832, 136.56670433748513 0.6587869031354785 M135.66887368820608 -0.524484446272254 C135.83564017909376 20.747224008411887, 135.3946891297659 38.57405674593294, 134.86097415350378 58.81158948875964 M137.1988862203434 0.710454354993999 C137.06779703458423 16.4330393095947, 137.45446318348522 30.743769520237883, 136.20248207915574 56.74066863488406 M136.12994321249425 57.217036018148065 C96.53904955227173 55.23860869688496, 54.87108947054041 56.415013351864665, -1.806444862857461 58.55453855730593 M137.40112361777574 58.36637936066836 C101.12034861942797 56.5121235511136, 64.06000685624865 56.63530170534372, -0.17156970035284758 57.61350781749934 M0.79176308773458 56.6505215857178 C-1.688476962554688 37.383438861700995, -1.9201651639821478 11.658907178333607, -1.478191653266549 -1.7892948295921087 M-0.3080798340961337 58.13284189533442 C-0.04803719627878866 36.94097155330604, 1.3632394720313767 16.713650275913892, 0.1580194579437375 -0.24274559784680605" stroke="#e8e8e8" stroke-width="1" fill="none"></path></g><g transform="translate(329.27276611328125 138.727294921875) rotate(0 78.90908813476562 31.636367797851562)"><path d="M15.18420977331698 1.4349827375262976 M14.855584224686027 -1.6488752271980047 C53.14296028175467 -0.11699315643642294, 91.96435390168952 -1.3268876347574983, 142.96806242130697 1.709417412057519 M16.43149731028825 -0.7483201222494245 C49.01938582398683 -0.11942565247706516, 82.84443120566637 0.08685568168469326, 141.7088749455288 -0.5292258756235242 M141.99999237060547 0 C154.31773746944964 -1.82965705730021, 158.44236333109438 3.4063766803592443, 157.293691823259 14.429477890953422 M143.35706830956042 -0.5873507056385279 C153.6300380992703 1.6340450164861977, 158.60516707478092 7.3058881727047265, 157.8113776105456 14.240116002876311 M156.39048643969 15.802407631650567 C156.1698771508066 25.818496380134658, 157.10869256571215 39.17407220442441, 158.5402456726879 46.46671147085726 M158.36818877328187 15.471752445213497 C157.25530159199963 24.9275933726643, 158.52180191601047 35.59941769092321, 158.4927324699238 46.95690084528178 M157.81817626953125 47.454551696777344 C157.47503686882555 58.317996164783835, 154.17004008032382 63.94240804575384, 141.79148728586733 62.52379020117223 M159.57701266743243 48.246314784511924 C159.92530504344032 56.01305299373344, 150.25823030648752 61.57281519444659, 141.07540161190553 61.55222239168361 M143.83520158194005 62.65657592751086 C116.79092939450894 61.647582502520024, 87.76822359806904 64.47013583914035, 14.189966460689902 63.5887745115906 M142.14230165351182 62.68413076829165 C106.66483370338307 63.504908002410346, 72.60067008217275 62.43367392519515, 16.46178973186761 62.76989753078669 M15.818183898925781 63.272735595703125 C6.521595606580377 63.36259915493429, 1.8038676474243402 56.49521644972265, -0.9924631621688604 48.26525064371526 M14.043149957433343 64.60934581421316 C5.04158143280074 65.19841663809493, -2.250402705091983 57.81103013427928, -0.5613636475987731 48.469918456394225 M0.5590076055377722 47.31067861057818 C-0.9589982666962629 39.424466733001445, -0.45900273704462097 29.675349353105375, -0.20925531722605228 14.854766080155969 M0.5510924207046628 47.236791531555355 C0.3071570828220028 40.11516189653288, -0.745445834133945 32.23454006638102, -0.9183923555538058 16.100788961164653 M0 15.818183898925781 C1.3857126329094172 7.0072311367839575, 3.4752699825912714 -1.094332018867135, 15.076102564111352 -1.0081128273159266 M-0.5008827354758978 17.70765974186361 C-0.5828484308905899 4.1961204466409985, 7.151146091800183 -2.078664395492524, 14.539860518556088 -1.5478938254527748" stroke="#e8e8e8" stroke-width="1" fill="none"></path></g><g><g transform="translate(168.54547119140625 36.18180847167969) rotate(0 122.50652711935697 42.32425376491473)"><path d="M-0.2886821810156107 -0.5775598045438528 C35.42004216276109 -1.5843843655039869, 173.35164350834867 -21.558067281668386, 214.2833799418062 -5.604567110165954 C255.21511637526373 10.348933061336478, 240.25299978790775 78.23374280569453, 245.30173641972954 95.14344122447073 M1.7606209446117282 1.733617352731526 C37.83204258572311 0.8480324336762229, 176.03544796006017 -20.11337871701767, 216.47593878161163 -4.336810862533748 C256.9164296031631 11.439756991950173, 239.76470404254243 80.06981827625384, 244.40356587392057 96.39302447963506" stroke="#e8e8e8" stroke-width="1" fill="none"></path></g><g transform="translate(168.54547119140625 36.18180847167969) rotate(0 122.50652711935697 42.32425376491473)"><path d="M232.70990732039414 66.72907517919423 C236.16536165876954 76.46019272224807, 240.0529566834729 83.72727183448772, 245.37163592462207 98.10244189169258 M234.28582040599636 67.6296302841428 C236.08252731979994 76.37759658064566, 239.3829866070923 83.99091982236104, 244.1124484488439 95.86379860401154" stroke="#e8e8e8" stroke-width="1" fill="none"></path></g><g transform="translate(168.54547119140625 36.18180847167969) rotate(0 122.50652711935697 42.32425376491473)"><path d="M253.2282406751518 66.38556574864064 C250.4763805567417 76.17126384650952, 248.15541195188374 83.5422841570947, 245.37163592462207 98.10244189169258 M254.80415376075402 67.28612085358922 C251.17264967984266 76.25145386720736, 249.04816685795095 83.9555992406472, 244.1124484488439 95.86379860401154" stroke="#e8e8e8" stroke-width="1" fill="none"></path></g></g><g transform="translate(10 140.90911865234375) rotate(0 74.18183898925781 30.909088134765625)"><path d="M-0.8560920748859644 -0.4205468203872442 C40.724373969027425 -0.40727533253453685, 82.84795181408828 2.9325833782313016, 147.6515754070133 -1.9032289888709784 M-0.1606211019679904 0.6587869031354785 C53.96187283594504 1.9753034937198075, 107.0274257414484 0.5810093807990464, 148.1014357553795 -0.6943530039861798 M146.49732669256628 1.3570759389549494 C147.2107969604722 24.017525207400563, 146.42591471302424 48.98999573133934, 149.78458668850362 62.50251610018313 M147.83883461821824 -0.7138449149206281 C148.80634300777774 23.241973887022503, 147.91604592273097 47.72145430242999, 148.2449392126873 62.17921097110957 M146.55723311565816 62.918201277032495 C110.48969213616792 60.772652539310805, 73.35088307501263 63.3056531873325, 1.8237316217273474 63.16728867031634 M148.19210827816278 61.9771705372259 C112.05020154121371 61.59743102786824, 74.99155152576122 61.658476346710174, -0.4019959820434451 61.07012705039233 M-1.478191653266549 60.02888143993914 C1.4833238545668799 36.34082790081765, 2.369252306581803 12.784253625001824, 1.3566566910594702 -0.8248658683151007 M0.1580194579437375 61.575430671684444 C-0.19022064341043987 46.2816662358493, -0.4751576973292784 30.940701597072266, -0.543623979203403 0.726899872533977" stroke="#e8e8e8" stroke-width="1" fill="none"></path></g><g><g transform="translate(325.63641357421875 172.90911865234375) rotate(0 -82.85386803789066 -2.8649043892510235)"><path d="M-0.25232809223234653 -0.1293401475995779 C-28.00807340381046 -0.6742035981267691, -139.97920472460487 -3.0059027191251517, -167.5237970057875 -3.782835948094726 M1.816060930006206 -1.2428476704284548 C-25.486737889138364 -2.097574861161411, -137.39823572485398 -5.191315742842853, -165.32543147850782 -5.600468630902469" stroke="#e8e8e8" stroke-width="1" fill="none"></path></g><g transform="translate(325.63641357421875 172.90911865234375) rotate(0 -82.85386803789066 -2.8649043892510235)"><path d="M-137.1294777380254 -16.863432661259168 C-142.16817597386103 -11.48770040974589, -150.02945216340933 -13.004731396561708, -164.09195326950402 -4.373841808177531 M-136.61130957267693 -14.367923125253613 C-143.6178650496939 -13.406110100447034, -149.98635478285226 -11.402301468126923, -164.43928689539433 -6.515297159552574" stroke="#e8e8e8" stroke-width="1" fill="none"></path></g><g transform="translate(325.63641357421875 172.90911865234375) rotate(0 -82.85386803789066 -2.8649043892510235)"><path d="M-137.58484461234187 3.652723006789726 C-142.43665635242718 4.565995115263041, -150.1988646375979 -1.414453530048256, -164.09195326950402 -4.373841808177531 M-137.0666764469934 6.148232542795283 C-143.9377446059056 2.4874641816182357, -150.20370029627475 -0.12830867471606489, -164.43928689539433 -6.515297159552574" stroke="#e8e8e8" stroke-width="1" fill="none"></path></g></g><g transform="translate(193.27264404296875 279.81817626953125) rotate(0 56.727294921875 46.909088134765625)"><path d="M80.85548643757905 4.832060663195492 C89.61339724487384 7.552539131913983, 97.34772623158146 13.698252297525247, 102.87815030381837 20.358704528724093 C108.40857437605528 27.01915675992294, 113.26326887626405 36.70846315931288, 114.0380308710005 44.79477405038857 C114.81279286573695 52.88108494146426, 112.38348194500499 61.82407559967059, 107.52672227223707 68.87656987517823 C102.66996259946914 75.92906415068587, 93.62631955749266 82.80605381347341, 84.89747283439299 87.1097397034344 C76.1686261112933 91.41342559339539, 65.03487063505759 94.7288085203674, 55.15364193363899 94.69868521494419 C45.272413232220394 94.66856190952099, 33.96080915113186 91.28618133115161, 25.610100625881426 86.92899987089521 C17.25939210063099 82.57181841063881, 9.33449228630994 75.87072009609885, 5.049390782136378 68.55559645340581 C0.7642892779628152 61.24047281071277, -0.9512366818683399 51.16395186912498, -0.10050839915994914 43.038258014736954 C0.7502198835484416 34.91256416034893, 4.21403514126866 26.31134660839555, 10.153760478386722 19.80143332707767 C16.093485815504785 13.291520045759793, 26.219166777079433 7.070226494707679, 35.537843623548426 3.9787783268296764 C44.856520470017415 0.887330158951674, 57.841105816280226 0.9439693977312966, 66.06582155720068 1.2527443198096577 C74.29053729812114 1.5615192418880188, 81.13330532657562 4.432602992065178, 84.88613806907115 5.831427859299843 C88.63897081156668 7.230252726534509, 89.12699697946971 9.032036884362675, 88.58281801217387 9.645693523217652 M47.54590347618691 0.4955017350671511 C56.70234222574645 -1.6289048622027167, 69.46468562906676 -0.7677297545566337, 78.78171395704976 2.286306394409479 C88.09874228503276 5.340342543375591, 97.84943610228322 12.106603509954471, 103.44807344408486 18.81971862886383 C109.04671078588649 25.532833747773186, 111.53548760022986 34.15905792245267, 112.37353800785954 42.56499710786563 C113.21158841548922 50.97093629327859, 112.55038527831553 62.03674049820083, 108.47637588986291 69.2553537413416 C104.40236650141028 76.47396698448236, 96.43620651184342 81.87740018813514, 87.92948167714384 85.87667656671024 C79.42275684244426 89.87595294528535, 67.46455771303972 92.96303557013145, 57.43602688166545 93.25101201279219 C47.40749605029117 93.53898845545292, 35.99685990985223 91.53643532823894, 27.75829668889819 87.60453522267467 C19.51973346794415 83.6726351171104, 12.398495985816233 76.74798791523958, 8.004647555941204 69.65961137940657 C3.610799126066177 62.57123484357356, 1.1904623163979338 53.452952748841476, 1.3952061096480293 45.07427600767661 C1.5999499028981248 36.69559926651174, 3.698482616818848 26.41358943991591, 9.233110315441778 19.38755093241737 C14.767738014064708 12.361512424918828, 28.34263739817378 6.247050612039139, 34.602972301385606 2.9180449626853644 C40.86330720459743 -0.41096068666841035, 44.710011326784034 -0.460452118741852, 46.79511973471274 -0.5864829637052793 C48.88022814264145 -0.7125138086687066, 46.882895269269476 0.9745693288543091, 47.11362274895785 2.1618598929048005" stroke="#e8e8e8" stroke-width="1" fill="none"></path></g><g><g transform="translate(86.36367797851562 212.90908813476562) rotate(0 45.30606163257059 66.85935524136943)"><path d="M1.0256504472345112 -0.42726154290139673 C0.6347293035437662 20.568975317850708, -19.881566252683598 105.6670209173113, -3.323791641369462 126.55826319493353 C13.233982969944675 147.44950547255576, 83.24440339170395 124.91178256310522, 100.37229811511934 124.92019212283193 M0.10497820269316427 -1.6971777982637286 C0.15171441645671915 18.907360739000143, -17.859355747190616 103.58033156920226, -1.2113542364910246 124.82423408199102 C15.436647274208566 146.0681365947798, 83.1928808189556 125.82567342687398, 99.99298726689071 125.7662372784689" stroke="#e8e8e8" stroke-width="1" fill="none"></path></g><g transform="translate(86.36367797851562 212.90908813476562) rotate(0 45.30606163257059 66.85935524136943)"><path d="M72.88095555413665 138.1123500756906 C80.52536653414818 137.9033966250758, 83.56305008527754 133.24236082895987, 101.31056107316167 126.37143978383392 M73.33081590250285 139.3212260605754 C84.7244377847255 133.73299795809137, 94.35413949146854 128.2071830097849, 100.67152523636818 125.47256192564964" stroke="#e8e8e8" stroke-width="1" fill="none"></path></g><g transform="translate(86.36367797851562 212.90908813476562) rotate(0 45.30606163257059 66.85935524136943)"><path d="M69.89806533170866 117.80909003433808 C78.29244689792878 122.01045589021489, 81.98182614537855 121.78523442301292, 101.31056107316167 126.37143978383392 M70.34792568007487 119.01796601922288 C82.83534865986358 121.29287269357914, 93.61795779201174 123.61440629521444, 100.67152523636818 125.47256192564964" stroke="#e8e8e8" stroke-width="1" fill="none"></path></g></g><g transform="translate(59.68186950683594 26.227256774902344) rotate(0 32.5 12.5)"><text x="32.5" y="17" font-family="Virgil, Segoe UI Emoji" font-size="20px" fill="#e8e8e8" text-anchor="middle" style="white-space: pre;" direction="ltr">ffmpeg</text></g><g transform="translate(340.6818542480469 157.86366271972656) rotate(0 67.5 12.5)"><text x="67.5" y="17" font-family="Virgil, Segoe UI Emoji" font-size="20px" fill="#e8e8e8" text-anchor="middle" style="white-space: pre;" direction="ltr">RTP Receiver</text></g><g transform="translate(33.68183898925781 147.31820678710938) rotate(0 50.5 24.5)"><text x="50.5" y="17.5" font-family="Virgil, Segoe UI Emoji" font-size="20px" fill="#e8e8e8" text-anchor="middle" style="white-space: pre;" direction="ltr">Websocket</text><text x="50.5" y="42" font-family="Virgil, Segoe UI Emoji" font-size="20px" fill="#e8e8e8" text-anchor="middle" style="white-space: pre;" direction="ltr">server</text></g><g transform="translate(227.49993896484375 314.2272644042969) rotate(0 22.5 12.5)"><text x="22.5" y="17" font-family="Virgil, Segoe UI Emoji" font-size="20px" fill="#e8e8e8" text-anchor="middle" style="white-space: pre;" direction="ltr">Disk</text></g></svg>